<svg width="164" height="34" viewBox="0 0 164 34" fill="none" xmlns="http://www.w3.org/2000/svg">
<g clip-path="url(#clip0_4926_174)">
<path d="M82.3538 32.927L86.7817 20.6386H72.1356L67.7077 32.927L63.1797 32.9201L58.3711 32.927L70.2122 0.078125H77.0043H79.5488L75.348 11.7291H89.9941L94.1949 0.078125H100.399H103.518L91.6704 32.927" fill="#2D74B4"/>
<path d="M128.197 32.927H128.371C132.078 32.927 146.229 32.7968 149.435 32.6666C149.789 32.6186 150.143 32.55 150.484 32.4678C158.164 30.7339 163.166 22.0916 160.889 14.1689C160.849 14.0456 160.815 13.9222 160.775 13.7988C161.216 13.4973 161.603 13.1478 161.944 12.7777C161.951 12.7708 161.957 12.764 161.957 12.7571C165.838 8.48052 163.827 0.729208 157.723 0.16722C157.409 0.153513 140.613 0.0849785 140.072 0.078125L139.744 0.989641L139.724 1.05132C138.87 3.47061 137.901 6.13663 136.886 8.91915L136.472 10.0568M140.92 25.2853L142.91 19.3982L152.153 19.4804C152.213 26.2106 145.081 25.4361 140.92 25.2853ZM150.831 11.7908H145.875C146.376 10.4201 146.944 8.78208 147.358 7.87056H154.664C154.651 10.0294 152.928 11.7908 150.831 11.7908Z" fill="#2D74B4"/>
<path d="M35.7449 32.9002L0.0546875 32.8933L3.34722 23.8398H38.9973L35.7449 32.9002Z" fill="#2D74B4"/>
<path d="M44.6209 8.37772L8.89062 8.38458L11.8826 0.078125L47.6129 0.0918323L44.6209 8.37772Z" fill="#2D74B4"/>
<path d="M28.8989 20.6381H4.46875L7.68114 11.7285L32.0913 11.7148L28.8989 20.6381Z" fill="#2D74B4"/>
<path d="M48.2076 11.711L49.3296 8.64062L54.2517 11.7453L60.8702 15.9191L43.8666 23.7389H43.8599L44.9285 20.7028H44.5945L32.9004 20.6959L36.1528 11.711H47.827" fill="#02BA3C"/>
<path d="M99.9256 19.8583L107.152 0.0859375H116.382L108.922 20.7972C108.728 21.3318 108.321 22.2845 108.321 22.8533C108.321 23.4633 108.928 25.6838 112.468 25.814C115.193 25.91 117.123 24.7723 118.365 23.6003C119.367 22.6614 120.102 21.4483 120.576 20.1462L127.895 0.0859375H136.745L128.977 21.6676C126.246 29.2476 119.066 34.3124 111.206 33.8463C110.885 33.8258 110.551 33.7983 110.217 33.7709C102.25 32.9965 99.9724 28.7267 99.4314 25.3891C99.1309 23.5318 99.2845 21.6402 99.9189 19.872L99.9256 19.8583Z" fill="#2D74B4"/>
</g>
<defs>
<clipPath id="clip0_4926_174">
<rect width="164" height="34" fill="white"/>
</clipPath>
</defs>
</svg>
